<svg xmlns="http://www.w3.org/2000/svg" width="820" height="386" viewBox="0 0 820 386" role="img" aria-labelledby="t d">
<title id="t">LocalRwLock — read lock + unlock</title><desc id="d">per-op cost over batches of 512 · to p99 — past that the samples measure OS preemption, not the primitive</desc>
<style>text{font-family:'Berkeley Mono', ui-monospace, 'SF Mono', Menlo, monospace;font-feature-settings:'liga' 1,'calt' 1;font-style:normal;dominant-baseline:auto}</style>
<rect width="820" height="386" fill="#101010"/>
<text x="24" y="30" fill="#f2f4f8" font-size="15" font-weight="400" font-style="normal" text-anchor="start">LocalRwLock — read lock + unlock</text><text x="24" y="46" fill="#838383" font-size="11" font-weight="400" font-style="normal" text-anchor="start">per-op cost over batches of 512 · to p99 — past that the samples measure OS preemption, not the primitive</text><line x1="74" y1="330" x2="660" y2="330" stroke="#2a2a2a" stroke-width="1"/><text x="64" y="334" fill="#838383" font-size="10" font-weight="400" font-style="normal" text-anchor="end">1 ns</text><line x1="74" y1="70" x2="660" y2="70" stroke="#2a2a2a" stroke-width="1"/><text x="64" y="74" fill="#838383" font-size="10" font-weight="400" font-style="normal" text-anchor="end">10 ns</text><line x1="74" y1="70" x2="74" y2="330" stroke="#2a2a2a" stroke-width="1"/><text x="74" y="348" fill="#838383" font-size="10" font-weight="400" font-style="normal" text-anchor="middle">p50</text><line x1="315.09" y1="70" x2="315.09" y2="330" stroke="#2a2a2a" stroke-width="1"/><text x="315.09" y="348" fill="#838383" font-size="10" font-weight="400" font-style="normal" text-anchor="middle">p90</text><line x1="660" y1="70" x2="660" y2="330" stroke="#2a2a2a" stroke-width="1"/><text x="660" y="348" fill="#838383" font-size="10" font-weight="400" font-style="normal" text-anchor="middle">p99</text><text x="367" y="374" fill="#838383" font-size="10" font-weight="400" font-style="normal" text-anchor="middle">percentile (log scale — the tail gets the room)</text><path d="M74 229.23 L177.83 229.23 L315.09 229.23 L660 205.5" fill="none" stroke="#1fae61" stroke-width="2" stroke-linejoin="round" stroke-linecap="round"/><circle cx="74" cy="229.23" r="4" fill="#1fae61" stroke="#101010" stroke-width="2"/><circle cx="177.83" cy="229.23" r="4" fill="#1fae61" stroke="#101010" stroke-width="2"/><circle cx="315.09" cy="229.23" r="4" fill="#1fae61" stroke="#101010" stroke-width="2"/><circle cx="660" cy="205.5" r="4" fill="#1fae61" stroke="#101010" stroke-width="2"/><path d="M74 188.54 L177.83 185.99 L315.09 185.93 L660 160.79" fill="none" stroke="#e8630f" stroke-width="2" stroke-linejoin="round" stroke-linecap="round"/><circle cx="74" cy="188.54" r="4" fill="#e8630f" stroke="#101010" stroke-width="2"/><circle cx="177.83" cy="185.99" r="4" fill="#e8630f" stroke="#101010" stroke-width="2"/><circle cx="315.09" cy="185.93" r="4" fill="#e8630f" stroke="#101010" stroke-width="2"/><circle cx="660" cy="160.79" r="4" fill="#e8630f" stroke="#101010" stroke-width="2"/><path d="M74 152.85 L177.83 152.81 L315.09 150.94 L660 128.8" fill="none" stroke="#4589ff" stroke-width="2" stroke-linejoin="round" stroke-linecap="round"/><circle cx="74" cy="152.85" r="4" fill="#4589ff" stroke="#101010" stroke-width="2"/><circle cx="177.83" cy="152.81" r="4" fill="#4589ff" stroke="#101010" stroke-width="2"/><circle cx="315.09" cy="150.94" r="4" fill="#4589ff" stroke="#101010" stroke-width="2"/><circle cx="660" cy="128.8" r="4" fill="#4589ff" stroke="#101010" stroke-width="2"/><text x="672" y="132.8" fill="#4589ff" font-size="11" font-weight="400" font-style="normal" text-anchor="start">std::sync::RwLock</text><text x="672" y="164.79" fill="#e8630f" font-size="11" font-weight="400" font-style="normal" text-anchor="start">parking_lot</text><text x="672" y="209.5" fill="#1fae61" font-size="11" font-weight="400" font-style="normal" text-anchor="start">cynosure LocalRwLock</text><line x1="74" y1="70" x2="74" y2="330" stroke="#3a3a3a" stroke-width="1"/><line x1="74" y1="330" x2="660" y2="330" stroke="#3a3a3a" stroke-width="1"/>
</svg>
