<svg xmlns="http://www.w3.org/2000/svg" width="820" height="386" viewBox="0 0 820 386" role="img" aria-labelledby="t d">
<title id="t">triple_buffer — publish + next rotation</title><desc id="d">per-op cost over batches of 512 · to p99 — past that the samples measure OS preemption, not the primitive</desc>
<style>text{font-family:'Berkeley Mono', ui-monospace, 'SF Mono', Menlo, monospace;font-feature-settings:'liga' 1,'calt' 1;font-style:normal;dominant-baseline:auto}</style>
<rect width="820" height="386" fill="#101010"/>
<text x="24" y="30" fill="#f2f4f8" font-size="15" font-weight="400" font-style="normal" text-anchor="start">triple_buffer — publish + next rotation</text><text x="24" y="46" fill="#838383" font-size="11" font-weight="400" font-style="normal" text-anchor="start">per-op cost over batches of 512 · to p99 — past that the samples measure OS preemption, not the primitive</text><line x1="74" y1="330" x2="646.8" y2="330" stroke="#2a2a2a" stroke-width="1"/><text x="64" y="334" fill="#838383" font-size="10" font-weight="400" font-style="normal" text-anchor="end">1 ns</text><line x1="74" y1="200" x2="646.8" y2="200" stroke="#2a2a2a" stroke-width="1"/><text x="64" y="204" fill="#838383" font-size="10" font-weight="400" font-style="normal" text-anchor="end">10 ns</text><line x1="74" y1="70" x2="646.8" y2="70" stroke="#2a2a2a" stroke-width="1"/><text x="64" y="74" fill="#838383" font-size="10" font-weight="400" font-style="normal" text-anchor="end">100 ns</text><line x1="74" y1="70" x2="74" y2="330" stroke="#2a2a2a" stroke-width="1"/><text x="74" y="348" fill="#838383" font-size="10" font-weight="400" font-style="normal" text-anchor="middle">p50</text><line x1="309.65" y1="70" x2="309.65" y2="330" stroke="#2a2a2a" stroke-width="1"/><text x="309.65" y="348" fill="#838383" font-size="10" font-weight="400" font-style="normal" text-anchor="middle">p90</text><line x1="646.8" y1="70" x2="646.8" y2="330" stroke="#2a2a2a" stroke-width="1"/><text x="646.8" y="348" fill="#838383" font-size="10" font-weight="400" font-style="normal" text-anchor="middle">p99</text><text x="360.4" y="374" fill="#838383" font-size="10" font-weight="400" font-style="normal" text-anchor="middle">percentile (log scale — the tail gets the room)</text><path d="M74 209.96 L175.49 209.42 L309.65 208.88 L646.8 196.83" fill="none" stroke="#1fae61" stroke-width="2" stroke-linejoin="round" stroke-linecap="round"/><circle cx="74" cy="209.96" r="4" fill="#1fae61" stroke="#101010" stroke-width="2"/><circle cx="175.49" cy="209.42" r="4" fill="#1fae61" stroke="#101010" stroke-width="2"/><circle cx="309.65" cy="208.88" r="4" fill="#1fae61" stroke="#101010" stroke-width="2"/><circle cx="646.8" cy="196.83" r="4" fill="#1fae61" stroke="#101010" stroke-width="2"/><path d="M74 167.38 L175.49 166.86 L309.65 166.61 L646.8 153.9" fill="none" stroke="#e8630f" stroke-width="2" stroke-linejoin="round" stroke-linecap="round"/><circle cx="74" cy="167.38" r="4" fill="#e8630f" stroke="#101010" stroke-width="2"/><circle cx="175.49" cy="166.86" r="4" fill="#e8630f" stroke="#101010" stroke-width="2"/><circle cx="309.65" cy="166.61" r="4" fill="#e8630f" stroke="#101010" stroke-width="2"/><circle cx="646.8" cy="153.9" r="4" fill="#e8630f" stroke="#101010" stroke-width="2"/><text x="658.8" y="157.9" fill="#e8630f" font-size="11" font-weight="400" font-style="normal" text-anchor="start">crossbeam-recycle</text><text x="658.8" y="200.83" fill="#1fae61" font-size="11" font-weight="400" font-style="normal" text-anchor="start">cynosure triple_buffer</text><line x1="74" y1="70" x2="74" y2="330" stroke="#3a3a3a" stroke-width="1"/><line x1="74" y1="330" x2="646.8" y2="330" stroke="#3a3a3a" stroke-width="1"/>
</svg>
